<svg width="150" height="30" viewBox="0 0 150 30" fill="none" xmlns="http://www.w3.org/2000/svg">
<g clip-path="url(#clip0_5_346)">
<path d="M33.3848 2.22021H42.8194C45.123 2.22021 47.1661 2.66862 48.9561 3.56183C50.7425 4.45503 52.1311 5.7207 53.1184 7.35522C54.1056 8.98974 54.5974 10.8738 54.5974 13.0146C54.5974 15.1554 54.102 17.0394 53.1184 18.6739C52.1311 20.3085 50.7425 21.5705 48.9561 22.4673C47.1661 23.3605 45.123 23.8089 42.8194 23.8089H33.3848V2.22021ZM42.635 20.4097C44.2189 20.4097 45.6111 20.1059 46.8117 19.502C48.0159 18.8945 48.938 18.0339 49.5853 16.9128C50.2326 15.7918 50.5581 14.4936 50.5581 13.011C50.5581 11.5283 50.2326 10.2301 49.5853 9.10908C48.938 7.98806 48.0123 7.1274 46.8117 6.51988C45.6075 5.91236 44.2153 5.6086 42.635 5.6086H37.3951V20.4097H42.635Z" fill="white"/>
<path d="M73.8971 16.8046H60.98C61.2042 18.016 61.7973 18.9779 62.7519 19.6867C63.7066 20.3954 64.8963 20.7498 66.3139 20.7498C68.122 20.7498 69.6119 20.1532 70.7835 18.9598L72.8484 21.3357C72.107 22.218 71.1741 22.887 70.0422 23.339C68.9103 23.7911 67.6374 24.0189 66.2199 24.0189C64.4118 24.0189 62.817 23.6609 61.4392 22.9413C60.0615 22.2216 58.9983 21.2199 58.2498 19.9362C57.4976 18.6524 57.1251 17.1987 57.1251 15.5751C57.1251 13.9514 57.4904 12.5266 58.2208 11.2428C58.9513 9.9591 59.9638 8.95741 61.2584 8.23778C62.553 7.51816 64.014 7.16016 65.6377 7.16016C67.2613 7.16016 68.6753 7.51454 69.9373 8.22332C71.203 8.93209 72.1866 9.93017 72.899 11.2139C73.6078 12.4977 73.9622 13.9839 73.9622 15.6691C73.9622 15.9367 73.9405 16.3164 73.9007 16.8118L73.8971 16.8046ZM62.506 11.3333C61.6526 12.0637 61.1355 13.0329 60.9474 14.2479H70.2881C70.1217 13.0546 69.6191 12.089 68.7765 11.3513C67.9339 10.61 66.8852 10.2412 65.6304 10.2412C64.3756 10.2412 63.3522 10.6064 62.5024 11.3369L62.506 11.3333Z" fill="white"/>
<path d="M91.9961 8.97178C93.2509 10.1832 93.8765 11.9841 93.8765 14.3672V23.8018H90.0217V14.859C90.0217 13.4197 89.6818 12.3348 89.0055 11.6044C88.3257 10.8739 87.3601 10.5087 86.1089 10.5087C84.6914 10.5087 83.5704 10.9354 82.7495 11.7888C81.9286 12.6422 81.5164 13.8681 81.5164 15.4737V23.7982H77.6615V7.33726H81.3319V9.46358C81.9684 8.70418 82.7712 8.12921 83.7367 7.73866C84.7022 7.34811 85.7907 7.15283 87.0058 7.15283C89.0815 7.15283 90.7449 7.76035 91.9997 8.97178H91.9961Z" fill="white"/>
<path d="M108.674 22.9085C108.222 23.2773 107.672 23.5558 107.025 23.7402C106.378 23.9246 105.694 24.0187 104.975 24.0187C103.167 24.0187 101.767 23.5449 100.78 22.6011C99.7927 21.6573 99.3009 20.2795 99.3009 18.4714V10.5447H96.5887V7.46007H99.3009V3.69922H103.156V7.46007H107.564V10.5447H103.156V18.3774C103.156 19.1802 103.351 19.7913 103.742 20.2108C104.132 20.6339 104.696 20.8436 105.438 20.8436C106.302 20.8436 107.021 20.6194 107.596 20.1638L108.674 22.9085Z" fill="white"/>
<path d="M112.037 3.96316C111.563 3.52198 111.328 2.97232 111.328 2.31417C111.328 1.65602 111.563 1.10636 112.037 0.665183C112.511 0.224006 113.097 0.00341797 113.795 0.00341797C114.493 0.00341797 115.078 0.213158 115.552 0.636253C116.026 1.05935 116.261 1.58731 116.261 2.22377C116.261 2.90361 116.029 3.47135 115.567 3.93423C115.104 4.3971 114.514 4.62854 113.795 4.62854C113.075 4.62854 112.511 4.40795 112.037 3.96677V3.96316ZM111.853 7.34069H115.708V23.8053H111.853V7.33707V7.34069Z" fill="white"/>
<path d="M125.124 6.47321V7.46043H129.655V10.5451H125.247V23.802H121.392V10.5451H118.68V7.46043H121.392V6.41173C121.392 4.64341 121.906 3.25117 122.933 2.23502C123.96 1.21887 125.41 0.708984 127.279 0.708984C128.758 0.708984 129.919 1.00551 130.762 1.60219L129.684 4.49876C129.026 4.04674 128.317 3.81892 127.558 3.81892C125.934 3.81892 125.121 4.70127 125.121 6.46959L125.124 6.47321Z" fill="white"/>
<path d="M149.924 7.33711L142.218 25.1252C141.498 26.9152 140.623 28.1737 139.596 28.9005C138.569 29.631 137.325 29.9962 135.864 29.9962C135.043 29.9962 134.23 29.8624 133.427 29.5948C132.624 29.3272 131.966 28.9584 131.453 28.4847L132.993 25.6496C133.362 26.0003 133.799 26.2752 134.302 26.4813C134.805 26.6874 135.315 26.7887 135.828 26.7887C136.508 26.7887 137.065 26.6151 137.51 26.2643C137.951 25.9135 138.356 25.3277 138.728 24.5068L139.007 23.8595L131.821 7.3335H135.828L141.007 19.5129L146.217 7.3335H149.917L149.924 7.33711Z" fill="white"/>
<path d="M20.9486 23.802H2.22758C0.998071 23.802 0 22.8039 0 21.5744V8.45482C0 5.62695 1.93105 3.2258 4.61789 2.35068C5.83655 1.95289 7.17816 2.33621 8.04966 3.27642L9.90839 5.28341C10.8161 6.2634 12.3638 6.2634 13.2678 5.28341L15.1266 3.27642C15.9981 2.33621 17.3397 1.95289 18.5583 2.35068C21.2452 3.2258 23.1762 5.63057 23.1762 8.45482V21.5744C23.1762 22.8039 22.1782 23.802 20.9486 23.802Z" fill="white"/>
</g>
<defs>
<clipPath id="clip0_5_346">
<rect width="149.924" height="30" fill="white"/>
</clipPath>
</defs>
</svg>
